<svg id="Layer_1" data-name="Layer 1" xmlns="http://www.w3.org/2000/svg" viewBox="0 0 221.12 229.72"><defs><style>.cls-1{fill:#fff;}.cls-2{fill:#1fa7ab;}.cls-3{font-size:48.78px;fill:#627272;font-family:Dense;}</style></defs><title>AHG</title><path class="cls-1" d="M104.76,83.8c4.93-10,6.92-21.06,2-32.45-5.13-12-15.73-15-26.55-7.89C65.44,53.13,61,80.38,72,94.09c3.61,4.48,8.37,6.49,14.16,5.49C95.1,98.05,100.31,92,104.76,83.8Z" transform="translate(3.54 11.88)"/><path class="cls-2" d="M85.82,214.44c-3.79-4.39-7.76-8.65-11.34-13.2-8.44-10.72-20-14.81-33-16.43-6.38-.79-12.93-2-18.84-4.34C11.56,176,9,163.28,16.64,154A89.38,89.38,0,0,1,52.19,128.1c24.73-10.19,49.07,1.67,56.76,27.5a123.54,123.54,0,0,1,5.05,40,42.49,42.49,0,0,1-.41,4.47c-2,14.1-7.76,18.8-21.57,17.66Z" transform="translate(3.54 11.88)"/><path class="cls-2" d="M154.48,69.8c9.52,12.09,8.12,27.57-4.67,40.15a44.84,44.84,0,0,1-16.62,10.33c-14,4.66-24.2-4.5-23.39-19.23,0.87-15.76,18.54-37.48,39.35-34Z" transform="translate(3.54 11.88)"/><path class="cls-2" d="M165.48,159c-4.25,3.65-8.36,7.49-12.81,10.88a23.38,23.38,0,0,1-7.23,3.25c-8.89,2.75-18.09.51-22.31-5.23-4.56-6.2-4-16,1.37-23.82,7.62-11,17.45-18.27,31.54-17.35,9.69,0.64,15.25,7.29,14.76,17-0.11,2.14-.46,4.27-0.7,6.4Z" transform="translate(3.54 11.88)"/><path class="cls-2" d="M54.42,87.25c2.71,10.44.76,20.43-5.5,29.42-7.34,10.53-19.31,10.8-27,.52C16.07,109.26,14.58,100.3,16,90.7c0.3-1.93.58-3.87,0.87-5.8L22,75.15c10.09-8.77,19.24-9.81,25.45-2A39,39,0,0,1,54.42,87.25Z" transform="translate(3.54 11.88)"/><path class="cls-2" d="M104.76,83.8C100.31,92,95.1,98.05,86.21,99.59c-5.79,1-10.55-1-14.16-5.49-11.06-13.71-6.6-41,8.2-50.64,10.81-7.07,21.42-4.06,26.55,7.89C111.67,62.73,109.69,73.82,104.76,83.8Z" transform="translate(3.54 11.88)"/><text class="cls-3" transform="matrix(1, -0.8, 0.63, 0.78, 25.39, 81.3)">L</text><text class="cls-3" transform="translate(39.02 70.24) rotate(-38.3) scale(1.28 1)">o</text><text class="cls-3" transform="matrix(1.07, -0.71, 0.55, 0.83, 52.6, 59.28)">s</text><text class="cls-3" transform="translate(65.81 50.49) rotate(-24.98) scale(1.28 1)">t</text><text class="cls-3" transform="translate(76.36 45.65) rotate(-17.47) scale(1.28 1)"> </text><text class="cls-3" transform="translate(82.92 43.12) rotate(-8.42) scale(1.28 1)">a</text><text class="cls-3" transform="matrix(1.28, 0.05, -0.04, 1, 99.22, 40.52)">n</text><text class="cls-3" transform="matrix(1.2, 0.46, -0.36, 0.93, 115.53, 40.6)">d</text><text class="cls-3" transform="translate(131.35 47.18) rotate(31.47) scale(1.28 1)"> </text><text class="cls-3" transform="matrix(0.98, 0.82, -0.64, 0.77, 137.68, 50.46)">H</text><text class="cls-3" transform="matrix(0.85, 0.95, -0.75, 0.67, 153.99, 64.19)">o</text><text class="cls-3" transform="translate(165.54 76.21) rotate(59.19) scale(1.28 1)">u</text><text class="cls-3" transform="translate(174.26 90.81) rotate(72.27) scale(1.28 1)">n</text><text class="cls-3" transform="matrix(0.02, 1.28, -1, 0.01, 180.13, 106.37)">d</text><text x="3.54" y="11.88"/></svg>